<mxfile host="app.diagrams.net" modified="2023-05-24T02:29:02.345Z" agent="Mozilla/5.0 (Windows NT 10.0; Win64; x64) AppleWebKit/537.36 (KHTML, like Gecko) Chrome/113.0.0.0 Safari/537.36 Edg/113.0.1774.50" etag="KEN0xcg1P9DObOupzrR7" version="21.3.2" type="github">
  <diagram name="第 1 页" id="gtPpL5h6iTfyjL-9bG1J">
    <mxGraphModel dx="3085" dy="844" grid="1" gridSize="10" guides="1" tooltips="1" connect="1" arrows="1" fold="1" page="1" pageScale="1" pageWidth="827" pageHeight="1169" math="0" shadow="0">
      <root>
        <mxCell id="0" />
        <mxCell id="1" parent="0" />
        <mxCell id="WEJjrTXjxI93EuUi6nmG-2" value="" style="rounded=0;whiteSpace=wrap;html=1;fillColor=#fff2cc;strokeColor=#d6b656;" vertex="1" parent="1">
          <mxGeometry x="-1654" width="1254" height="700" as="geometry" />
        </mxCell>
        <mxCell id="WEJjrTXjxI93EuUi6nmG-3" value="TOC 上架业务拓扑图" style="text;html=1;align=left;verticalAlign=middle;resizable=0;points=[];autosize=1;strokeColor=none;fillColor=none;fontStyle=1;fontSize=16;" vertex="1" parent="1">
          <mxGeometry x="-1610" y="40" width="170" height="30" as="geometry" />
        </mxCell>
        <mxCell id="WEJjrTXjxI93EuUi6nmG-4" value="" style="rounded=0;whiteSpace=wrap;html=1;" vertex="1" parent="1">
          <mxGeometry x="-1610" y="90" width="120" height="220" as="geometry" />
        </mxCell>
        <mxCell id="WEJjrTXjxI93EuUi6nmG-5" value="W01成品仓" style="text;html=1;align=center;verticalAlign=middle;resizable=0;points=[];autosize=1;strokeColor=none;fillColor=none;" vertex="1" parent="1">
          <mxGeometry x="-1610" y="90" width="80" height="30" as="geometry" />
        </mxCell>
        <mxCell id="WEJjrTXjxI93EuUi6nmG-6" value="" style="rounded=0;whiteSpace=wrap;html=1;" vertex="1" parent="1">
          <mxGeometry x="-1460" y="90" width="130" height="220" as="geometry" />
        </mxCell>
        <mxCell id="WEJjrTXjxI93EuUi6nmG-7" value="W04储物仓" style="text;html=1;align=center;verticalAlign=middle;resizable=0;points=[];autosize=1;strokeColor=none;fillColor=none;" vertex="1" parent="1">
          <mxGeometry x="-1460" y="90" width="80" height="30" as="geometry" />
        </mxCell>
        <mxCell id="WEJjrTXjxI93EuUi6nmG-8" value="新品分货剩余商品" style="shape=cylinder3;whiteSpace=wrap;html=1;boundedLbl=1;backgroundOutline=1;size=15;" vertex="1" parent="1">
          <mxGeometry x="-1580" y="130" width="60" height="80" as="geometry" />
        </mxCell>
        <mxCell id="WEJjrTXjxI93EuUi6nmG-9" value="追单分货剩余商品" style="shape=cylinder3;whiteSpace=wrap;html=1;boundedLbl=1;backgroundOutline=1;size=15;" vertex="1" parent="1">
          <mxGeometry x="-1580" y="220" width="60" height="80" as="geometry" />
        </mxCell>
        <mxCell id="WEJjrTXjxI93EuUi6nmG-10" value="库位1" style="shape=ext;double=1;whiteSpace=wrap;html=1;aspect=fixed;" vertex="1" parent="1">
          <mxGeometry x="-1445" y="130" width="50" height="50" as="geometry" />
        </mxCell>
        <mxCell id="WEJjrTXjxI93EuUi6nmG-11" value="库位2" style="shape=ext;double=1;whiteSpace=wrap;html=1;aspect=fixed;" vertex="1" parent="1">
          <mxGeometry x="-1390" y="130" width="50" height="50" as="geometry" />
        </mxCell>
        <mxCell id="WEJjrTXjxI93EuUi6nmG-12" value="库位4" style="shape=ext;double=1;whiteSpace=wrap;html=1;aspect=fixed;" vertex="1" parent="1">
          <mxGeometry x="-1390" y="190" width="50" height="50" as="geometry" />
        </mxCell>
        <mxCell id="WEJjrTXjxI93EuUi6nmG-13" value="库位3" style="shape=ext;double=1;whiteSpace=wrap;html=1;aspect=fixed;" vertex="1" parent="1">
          <mxGeometry x="-1445" y="190" width="50" height="50" as="geometry" />
        </mxCell>
        <mxCell id="WEJjrTXjxI93EuUi6nmG-14" value="库位&lt;br&gt;..." style="shape=ext;double=1;whiteSpace=wrap;html=1;aspect=fixed;" vertex="1" parent="1">
          <mxGeometry x="-1445" y="250" width="50" height="50" as="geometry" />
        </mxCell>
        <mxCell id="WEJjrTXjxI93EuUi6nmG-15" value="库位&lt;br&gt;..." style="shape=ext;double=1;whiteSpace=wrap;html=1;aspect=fixed;" vertex="1" parent="1">
          <mxGeometry x="-1390" y="250" width="50" height="50" as="geometry" />
        </mxCell>
        <mxCell id="WEJjrTXjxI93EuUi6nmG-16" value="" style="group" vertex="1" connectable="0" parent="1">
          <mxGeometry x="-1513" y="200" width="60" height="10" as="geometry" />
        </mxCell>
        <mxCell id="WEJjrTXjxI93EuUi6nmG-17" value="" style="endArrow=classic;html=1;rounded=0;" edge="1" parent="WEJjrTXjxI93EuUi6nmG-16">
          <mxGeometry width="50" height="50" relative="1" as="geometry">
            <mxPoint y="10" as="sourcePoint" />
            <mxPoint x="60" y="10" as="targetPoint" />
          </mxGeometry>
        </mxCell>
        <mxCell id="WEJjrTXjxI93EuUi6nmG-18" value="" style="endArrow=classic;html=1;rounded=0;" edge="1" parent="WEJjrTXjxI93EuUi6nmG-16">
          <mxGeometry width="50" height="50" relative="1" as="geometry">
            <mxPoint as="sourcePoint" />
            <mxPoint x="60" as="targetPoint" />
          </mxGeometry>
        </mxCell>
        <mxCell id="WEJjrTXjxI93EuUi6nmG-19" value="" style="rounded=0;whiteSpace=wrap;html=1;strokeColor=#B3B3B3;" vertex="1" parent="1">
          <mxGeometry x="-1030" y="40" width="590" height="400" as="geometry" />
        </mxCell>
        <mxCell id="WEJjrTXjxI93EuUi6nmG-20" value="" style="ellipse;html=1;shape=startState;fillColor=#000000;strokeColor=#ff0000;" vertex="1" parent="1">
          <mxGeometry x="-950" y="89" width="30" height="30" as="geometry" />
        </mxCell>
        <mxCell id="WEJjrTXjxI93EuUi6nmG-21" value="" style="edgeStyle=orthogonalEdgeStyle;html=1;verticalAlign=bottom;endArrow=open;endSize=8;strokeColor=#ff0000;rounded=0;" edge="1" parent="1" source="WEJjrTXjxI93EuUi6nmG-20">
          <mxGeometry relative="1" as="geometry">
            <mxPoint x="-760" y="103.5" as="targetPoint" />
          </mxGeometry>
        </mxCell>
        <mxCell id="WEJjrTXjxI93EuUi6nmG-22" value="开始" style="text;html=1;align=center;verticalAlign=middle;resizable=0;points=[];autosize=1;strokeColor=none;fillColor=none;" vertex="1" parent="1">
          <mxGeometry x="-960" y="116.5" width="50" height="30" as="geometry" />
        </mxCell>
        <mxCell id="WEJjrTXjxI93EuUi6nmG-23" value="" style="edgeStyle=orthogonalEdgeStyle;rounded=0;orthogonalLoop=1;jettySize=auto;html=1;entryX=1;entryY=0.5;entryDx=0;entryDy=0;" edge="1" parent="1" source="WEJjrTXjxI93EuUi6nmG-27" target="WEJjrTXjxI93EuUi6nmG-34">
          <mxGeometry relative="1" as="geometry">
            <mxPoint x="-520" y="103.5" as="targetPoint" />
            <Array as="points">
              <mxPoint x="-500" y="104" />
              <mxPoint x="-500" y="342" />
            </Array>
          </mxGeometry>
        </mxCell>
        <mxCell id="WEJjrTXjxI93EuUi6nmG-24" value="Y：所有SKU 均可预占" style="edgeLabel;html=1;align=center;verticalAlign=middle;resizable=0;points=[];" vertex="1" connectable="0" parent="WEJjrTXjxI93EuUi6nmG-23">
          <mxGeometry x="-0.0881" y="1" relative="1" as="geometry">
            <mxPoint as="offset" />
          </mxGeometry>
        </mxCell>
        <mxCell id="WEJjrTXjxI93EuUi6nmG-25" value="" style="edgeStyle=orthogonalEdgeStyle;rounded=0;orthogonalLoop=1;jettySize=auto;html=1;" edge="1" parent="1" source="WEJjrTXjxI93EuUi6nmG-27" target="WEJjrTXjxI93EuUi6nmG-30">
          <mxGeometry relative="1" as="geometry" />
        </mxCell>
        <mxCell id="WEJjrTXjxI93EuUi6nmG-26" value="N：仅可预占/上架同款SKU" style="edgeLabel;html=1;align=center;verticalAlign=middle;resizable=0;points=[];" vertex="1" connectable="0" parent="WEJjrTXjxI93EuUi6nmG-25">
          <mxGeometry x="-0.165" y="-1" relative="1" as="geometry">
            <mxPoint as="offset" />
          </mxGeometry>
        </mxCell>
        <mxCell id="WEJjrTXjxI93EuUi6nmG-27" value="库位是否为空" style="rhombus;whiteSpace=wrap;html=1;fontColor=#000000;fillColor=#ffffc0;strokeColor=#ff0000;" vertex="1" parent="1">
          <mxGeometry x="-760" y="83.5" width="80" height="40" as="geometry" />
        </mxCell>
        <mxCell id="WEJjrTXjxI93EuUi6nmG-28" value="" style="edgeStyle=orthogonalEdgeStyle;rounded=0;orthogonalLoop=1;jettySize=auto;html=1;" edge="1" parent="1" source="WEJjrTXjxI93EuUi6nmG-30">
          <mxGeometry relative="1" as="geometry">
            <mxPoint x="-720" y="313.4999999999999" as="targetPoint" />
          </mxGeometry>
        </mxCell>
        <mxCell id="WEJjrTXjxI93EuUi6nmG-29" value="" style="edgeStyle=orthogonalEdgeStyle;rounded=0;orthogonalLoop=1;jettySize=auto;html=1;" edge="1" parent="1" source="WEJjrTXjxI93EuUi6nmG-30" target="WEJjrTXjxI93EuUi6nmG-38">
          <mxGeometry relative="1" as="geometry">
            <mxPoint x="-820" y="223.5" as="targetPoint" />
          </mxGeometry>
        </mxCell>
        <mxCell id="WEJjrTXjxI93EuUi6nmG-30" value="库容是否已满" style="rhombus;whiteSpace=wrap;html=1;fontColor=#000000;fillColor=#ffffc0;strokeColor=#ff0000;" vertex="1" parent="1">
          <mxGeometry x="-760" y="203.5" width="80" height="40" as="geometry" />
        </mxCell>
        <mxCell id="WEJjrTXjxI93EuUi6nmG-31" value="已上架+预占&amp;lt; SKU允许库容时，可用" style="strokeWidth=2;html=1;shape=mxgraph.flowchart.document2;whiteSpace=wrap;size=0.25;align=left;strokeColor=#808080;" vertex="1" parent="1">
          <mxGeometry x="-660" y="270" width="140" height="60" as="geometry" />
        </mxCell>
        <mxCell id="WEJjrTXjxI93EuUi6nmG-32" value="" style="edgeStyle=orthogonalEdgeStyle;rounded=0;orthogonalLoop=1;jettySize=auto;html=1;entryX=1.032;entryY=0.053;entryDx=0;entryDy=0;entryPerimeter=0;" edge="1" parent="1" source="WEJjrTXjxI93EuUi6nmG-34">
          <mxGeometry relative="1" as="geometry">
            <mxPoint x="-867.44" y="343.0899999999999" as="targetPoint" />
          </mxGeometry>
        </mxCell>
        <mxCell id="WEJjrTXjxI93EuUi6nmG-33" value="库容占满时" style="edgeLabel;html=1;align=center;verticalAlign=middle;resizable=0;points=[];" vertex="1" connectable="0" parent="WEJjrTXjxI93EuUi6nmG-32">
          <mxGeometry x="-0.3307" y="-1" relative="1" as="geometry">
            <mxPoint as="offset" />
          </mxGeometry>
        </mxCell>
        <mxCell id="WEJjrTXjxI93EuUi6nmG-34" value="可用" style="swimlane;fontStyle=1;align=center;verticalAlign=middle;childLayout=stackLayout;horizontal=1;startSize=30;horizontalStack=0;resizeParent=0;resizeLast=1;container=0;fontColor=#000000;collapsible=0;rounded=1;arcSize=30;strokeColor=#ff0000;fillColor=#ffffc0;swimlaneFillColor=#ffffc0;dropTarget=0;" vertex="1" parent="1">
          <mxGeometry x="-755" y="311.5" width="80" height="60" as="geometry" />
        </mxCell>
        <mxCell id="WEJjrTXjxI93EuUi6nmG-35" value="N：未满" style="text;html=1;align=center;verticalAlign=middle;resizable=0;points=[];autosize=1;strokeColor=none;fillColor=none;" vertex="1" parent="1">
          <mxGeometry x="-745" y="256.5" width="70" height="30" as="geometry" />
        </mxCell>
        <mxCell id="WEJjrTXjxI93EuUi6nmG-36" value="" style="edgeStyle=orthogonalEdgeStyle;rounded=0;orthogonalLoop=1;jettySize=auto;html=1;entryX=1;entryY=0.5;entryDx=0;entryDy=0;" edge="1" parent="1" source="WEJjrTXjxI93EuUi6nmG-38" target="WEJjrTXjxI93EuUi6nmG-39">
          <mxGeometry relative="1" as="geometry">
            <Array as="points" />
          </mxGeometry>
        </mxCell>
        <mxCell id="WEJjrTXjxI93EuUi6nmG-37" value="" style="edgeStyle=orthogonalEdgeStyle;rounded=0;orthogonalLoop=1;jettySize=auto;html=1;entryX=0.5;entryY=1;entryDx=0;entryDy=0;exitX=0.5;exitY=1;exitDx=0;exitDy=0;" edge="1" parent="1" source="WEJjrTXjxI93EuUi6nmG-38" target="WEJjrTXjxI93EuUi6nmG-34">
          <mxGeometry relative="1" as="geometry">
            <mxPoint x="-910" y="451.5" as="targetPoint" />
          </mxGeometry>
        </mxCell>
        <mxCell id="WEJjrTXjxI93EuUi6nmG-38" value="不可用" style="swimlane;fontStyle=1;align=center;verticalAlign=middle;childLayout=stackLayout;horizontal=1;startSize=30;horizontalStack=0;resizeParent=0;resizeLast=1;container=0;fontColor=#000000;collapsible=0;rounded=1;arcSize=30;strokeColor=#ff0000;fillColor=#ffffc0;swimlaneFillColor=#ffffc0;dropTarget=0;" vertex="1" parent="1">
          <mxGeometry x="-950" y="311.5" width="80" height="60" as="geometry" />
        </mxCell>
        <mxCell id="WEJjrTXjxI93EuUi6nmG-39" value="" style="ellipse;html=1;shape=endState;fillColor=#000000;strokeColor=#ff0000;" vertex="1" parent="1">
          <mxGeometry x="-1020" y="326.5" width="30" height="30" as="geometry" />
        </mxCell>
        <mxCell id="WEJjrTXjxI93EuUi6nmG-40" value="结束" style="text;html=1;align=center;verticalAlign=middle;resizable=0;points=[];autosize=1;strokeColor=none;fillColor=none;" vertex="1" parent="1">
          <mxGeometry x="-1030" y="356.5" width="50" height="30" as="geometry" />
        </mxCell>
        <mxCell id="WEJjrTXjxI93EuUi6nmG-41" value="SKU 下架/预占指令撤销（作废）时" style="text;html=1;align=center;verticalAlign=middle;resizable=0;points=[];autosize=1;strokeColor=none;fillColor=none;" vertex="1" parent="1">
          <mxGeometry x="-915" y="386.5" width="210" height="30" as="geometry" />
        </mxCell>
        <mxCell id="WEJjrTXjxI93EuUi6nmG-42" value="1. 库位状态机" style="text;html=1;align=left;verticalAlign=middle;resizable=0;points=[];autosize=1;strokeColor=none;fillColor=none;fontStyle=1" vertex="1" parent="1">
          <mxGeometry x="-1030" y="40" width="100" height="30" as="geometry" />
        </mxCell>
        <mxCell id="WEJjrTXjxI93EuUi6nmG-43" value="" style="rounded=0;whiteSpace=wrap;html=1;strokeColor=#B3B3B3;" vertex="1" parent="1">
          <mxGeometry x="-1030" y="450" width="590" height="220" as="geometry" />
        </mxCell>
        <mxCell id="WEJjrTXjxI93EuUi6nmG-44" value="" style="edgeStyle=orthogonalEdgeStyle;rounded=0;orthogonalLoop=1;jettySize=auto;html=1;" edge="1" parent="1" source="WEJjrTXjxI93EuUi6nmG-45" target="WEJjrTXjxI93EuUi6nmG-57">
          <mxGeometry relative="1" as="geometry" />
        </mxCell>
        <mxCell id="WEJjrTXjxI93EuUi6nmG-45" value="" style="ellipse;html=1;shape=startState;fillColor=#000000;strokeColor=#ff0000;" vertex="1" parent="1">
          <mxGeometry x="-995" y="499" width="30" height="30" as="geometry" />
        </mxCell>
        <mxCell id="WEJjrTXjxI93EuUi6nmG-46" value="2. 商品SKC状态机" style="text;html=1;align=left;verticalAlign=middle;resizable=0;points=[];autosize=1;strokeColor=none;fillColor=none;fontStyle=1" vertex="1" parent="1">
          <mxGeometry x="-1030" y="450" width="120" height="30" as="geometry" />
        </mxCell>
        <mxCell id="WEJjrTXjxI93EuUi6nmG-47" value="" style="group" vertex="1" connectable="0" parent="1">
          <mxGeometry x="-1320" y="90" width="250" height="92" as="geometry" />
        </mxCell>
        <mxCell id="WEJjrTXjxI93EuUi6nmG-48" value="" style="endArrow=classic;html=1;rounded=0;" edge="1" parent="WEJjrTXjxI93EuUi6nmG-47">
          <mxGeometry width="50" height="50" relative="1" as="geometry">
            <mxPoint y="12" as="sourcePoint" />
            <mxPoint y="50" as="targetPoint" />
          </mxGeometry>
        </mxCell>
        <mxCell id="WEJjrTXjxI93EuUi6nmG-49" value="1. 待上架商品按上架货位匹配策略预占库位" style="text;html=1;align=left;verticalAlign=middle;resizable=0;points=[];autosize=1;strokeColor=none;fillColor=none;" vertex="1" parent="WEJjrTXjxI93EuUi6nmG-47">
          <mxGeometry width="250" height="30" as="geometry" />
        </mxCell>
        <mxCell id="WEJjrTXjxI93EuUi6nmG-50" value="" style="group" vertex="1" connectable="0" parent="1">
          <mxGeometry x="-1320" y="170" width="230" height="58" as="geometry" />
        </mxCell>
        <mxCell id="WEJjrTXjxI93EuUi6nmG-51" value="" style="endArrow=classic;html=1;rounded=0;" edge="1" parent="WEJjrTXjxI93EuUi6nmG-50">
          <mxGeometry width="50" height="50" relative="1" as="geometry">
            <mxPoint y="7.565217391304349" as="sourcePoint" />
            <mxPoint y="58" as="targetPoint" />
          </mxGeometry>
        </mxCell>
        <mxCell id="WEJjrTXjxI93EuUi6nmG-52" value="2. 生成上架待办通知" style="text;html=1;align=left;verticalAlign=middle;resizable=0;points=[];autosize=1;strokeColor=none;fillColor=none;" vertex="1" parent="WEJjrTXjxI93EuUi6nmG-50">
          <mxGeometry width="130" height="30" as="geometry" />
        </mxCell>
        <mxCell id="WEJjrTXjxI93EuUi6nmG-53" value="" style="group;align=left;" vertex="1" connectable="0" parent="1">
          <mxGeometry x="-1320" y="220" width="260" height="92" as="geometry" />
        </mxCell>
        <mxCell id="WEJjrTXjxI93EuUi6nmG-54" value="" style="endArrow=classic;html=1;rounded=0;" edge="1" parent="WEJjrTXjxI93EuUi6nmG-53">
          <mxGeometry width="50" height="50" relative="1" as="geometry">
            <mxPoint y="44" as="sourcePoint" />
            <mxPoint y="88" as="targetPoint" />
          </mxGeometry>
        </mxCell>
        <mxCell id="WEJjrTXjxI93EuUi6nmG-55" value="3. 按上架策略操作上架，生成E3&lt;span style=&quot;white-space: pre;&quot;&gt; &lt;/span&gt;移仓单，并更新商品&lt;br&gt;库存。" style="text;html=1;align=left;verticalAlign=middle;resizable=0;points=[];autosize=1;strokeColor=none;fillColor=none;" vertex="1" parent="WEJjrTXjxI93EuUi6nmG-53">
          <mxGeometry y="33" width="310" height="40" as="geometry" />
        </mxCell>
        <mxCell id="WEJjrTXjxI93EuUi6nmG-56" value="开始" style="text;html=1;align=center;verticalAlign=middle;resizable=0;points=[];autosize=1;strokeColor=none;fillColor=none;" vertex="1" parent="1">
          <mxGeometry x="-1005" y="529" width="50" height="30" as="geometry" />
        </mxCell>
        <mxCell id="WEJjrTXjxI93EuUi6nmG-57" value="是否匹配到库位" style="rhombus;whiteSpace=wrap;html=1;fontColor=#000000;fillColor=#ffffc0;strokeColor=#ff0000;" vertex="1" parent="1">
          <mxGeometry x="-900" y="494" width="80" height="40" as="geometry" />
        </mxCell>
        <mxCell id="WEJjrTXjxI93EuUi6nmG-58" value="Y：已匹配" style="edgeStyle=orthogonalEdgeStyle;html=1;align=left;verticalAlign=bottom;endArrow=open;endSize=8;strokeColor=#ff0000;rounded=0;" edge="1" parent="1" source="WEJjrTXjxI93EuUi6nmG-57">
          <mxGeometry x="-1" relative="1" as="geometry">
            <mxPoint x="-720" y="514" as="targetPoint" />
          </mxGeometry>
        </mxCell>
        <mxCell id="WEJjrTXjxI93EuUi6nmG-59" value="N：未匹配" style="edgeStyle=orthogonalEdgeStyle;html=1;align=left;verticalAlign=top;endArrow=open;endSize=8;strokeColor=#ff0000;rounded=0;" edge="1" parent="1" source="WEJjrTXjxI93EuUi6nmG-57">
          <mxGeometry x="-1" relative="1" as="geometry">
            <mxPoint x="-860" y="594" as="targetPoint" />
          </mxGeometry>
        </mxCell>
        <mxCell id="WEJjrTXjxI93EuUi6nmG-60" value="" style="edgeStyle=orthogonalEdgeStyle;rounded=0;orthogonalLoop=1;jettySize=auto;html=1;exitX=1;exitY=0.5;exitDx=0;exitDy=0;entryX=0;entryY=0.5;entryDx=0;entryDy=0;" edge="1" parent="1" source="WEJjrTXjxI93EuUi6nmG-65" target="WEJjrTXjxI93EuUi6nmG-67">
          <mxGeometry relative="1" as="geometry">
            <mxPoint x="-680" y="624" as="sourcePoint" />
            <Array as="points">
              <mxPoint x="-610" y="625" />
              <mxPoint x="-610" y="514" />
            </Array>
          </mxGeometry>
        </mxCell>
        <mxCell id="WEJjrTXjxI93EuUi6nmG-61" value="手动指定可用库位上架" style="edgeLabel;html=1;align=left;verticalAlign=middle;resizable=0;points=[];" vertex="1" connectable="0" parent="WEJjrTXjxI93EuUi6nmG-60">
          <mxGeometry x="-0.538" relative="1" as="geometry">
            <mxPoint as="offset" />
          </mxGeometry>
        </mxCell>
        <mxCell id="WEJjrTXjxI93EuUi6nmG-62" value="" style="edgeStyle=orthogonalEdgeStyle;rounded=0;orthogonalLoop=1;jettySize=auto;html=1;" edge="1" parent="1" source="WEJjrTXjxI93EuUi6nmG-64" target="WEJjrTXjxI93EuUi6nmG-67">
          <mxGeometry relative="1" as="geometry" />
        </mxCell>
        <mxCell id="WEJjrTXjxI93EuUi6nmG-63" value="执行上架" style="edgeLabel;html=1;align=right;verticalAlign=middle;resizable=0;points=[];" vertex="1" connectable="0" parent="WEJjrTXjxI93EuUi6nmG-62">
          <mxGeometry x="0.3241" relative="1" as="geometry">
            <mxPoint as="offset" />
          </mxGeometry>
        </mxCell>
        <mxCell id="WEJjrTXjxI93EuUi6nmG-64" value="待上架" style="swimlane;fontStyle=1;align=center;verticalAlign=middle;childLayout=stackLayout;horizontal=1;startSize=30;horizontalStack=0;resizeParent=0;resizeLast=1;container=0;fontColor=#000000;collapsible=0;rounded=1;arcSize=30;strokeColor=#ff0000;fillColor=#ffffc0;swimlaneFillColor=#ffffc0;dropTarget=0;" vertex="1" parent="1">
          <mxGeometry x="-717" y="484" width="80" height="60" as="geometry" />
        </mxCell>
        <mxCell id="WEJjrTXjxI93EuUi6nmG-65" value="未匹配" style="swimlane;fontStyle=1;align=center;verticalAlign=middle;childLayout=stackLayout;horizontal=1;startSize=30;horizontalStack=0;resizeParent=0;resizeLast=1;container=0;fontColor=#000000;collapsible=0;rounded=1;arcSize=30;strokeColor=#ff0000;fillColor=#ffffc0;swimlaneFillColor=#ffffc0;dropTarget=0;" vertex="1" parent="1">
          <mxGeometry x="-900" y="595" width="80" height="60" as="geometry" />
        </mxCell>
        <mxCell id="WEJjrTXjxI93EuUi6nmG-66" value="" style="edgeStyle=orthogonalEdgeStyle;rounded=0;orthogonalLoop=1;jettySize=auto;html=1;" edge="1" parent="1" source="WEJjrTXjxI93EuUi6nmG-67" target="WEJjrTXjxI93EuUi6nmG-68">
          <mxGeometry relative="1" as="geometry" />
        </mxCell>
        <mxCell id="WEJjrTXjxI93EuUi6nmG-67" value="已上架" style="swimlane;fontStyle=1;align=center;verticalAlign=middle;childLayout=stackLayout;horizontal=1;startSize=30;horizontalStack=0;resizeParent=0;resizeLast=1;container=0;fontColor=#000000;collapsible=0;rounded=1;arcSize=30;strokeColor=#ff0000;fillColor=#ffffc0;swimlaneFillColor=#ffffc0;dropTarget=0;" vertex="1" parent="1">
          <mxGeometry x="-557" y="484" width="80" height="60" as="geometry" />
        </mxCell>
        <mxCell id="WEJjrTXjxI93EuUi6nmG-68" value="" style="ellipse;html=1;shape=endState;fillColor=#000000;strokeColor=#ff0000;" vertex="1" parent="1">
          <mxGeometry x="-532" y="580" width="30" height="30" as="geometry" />
        </mxCell>
        <mxCell id="WEJjrTXjxI93EuUi6nmG-69" value="结束" style="text;html=1;align=center;verticalAlign=middle;resizable=0;points=[];autosize=1;strokeColor=none;fillColor=none;" vertex="1" parent="1">
          <mxGeometry x="-542" y="610" width="50" height="30" as="geometry" />
        </mxCell>
        <mxCell id="WEJjrTXjxI93EuUi6nmG-70" value="上架" style="text;html=1;align=center;verticalAlign=middle;resizable=0;points=[];autosize=1;strokeColor=none;fillColor=none;" vertex="1" parent="1">
          <mxGeometry x="-1503" y="170" width="50" height="30" as="geometry" />
        </mxCell>
        <mxCell id="WEJjrTXjxI93EuUi6nmG-71" value="" style="rounded=0;whiteSpace=wrap;html=1;strokeColor=#B3B3B3;" vertex="1" parent="1">
          <mxGeometry x="-1610" y="350" width="560" height="320" as="geometry" />
        </mxCell>
        <mxCell id="WEJjrTXjxI93EuUi6nmG-72" value="3. 上架相关算法" style="text;html=1;align=left;verticalAlign=middle;resizable=0;points=[];autosize=1;strokeColor=none;fillColor=none;fontStyle=1" vertex="1" parent="1">
          <mxGeometry x="-1610" y="350" width="110" height="30" as="geometry" />
        </mxCell>
        <mxCell id="WEJjrTXjxI93EuUi6nmG-73" value="3.1）上架货位匹配策略（如按品牌分区、不允许混放、是否考虑库存周转等）" style="text;html=1;align=left;verticalAlign=middle;resizable=0;points=[];autosize=1;strokeColor=none;fillColor=none;fontStyle=0" vertex="1" parent="1">
          <mxGeometry x="-1593" y="390" width="440" height="30" as="geometry" />
        </mxCell>
        <mxCell id="WEJjrTXjxI93EuUi6nmG-74" value="3.2） 上架操作策略（如按款最短路径等）" style="text;html=1;align=left;verticalAlign=middle;resizable=0;points=[];autosize=1;strokeColor=none;fillColor=none;fontStyle=0" vertex="1" parent="1">
          <mxGeometry x="-1593" y="469" width="250" height="30" as="geometry" />
        </mxCell>
        <mxCell id="WEJjrTXjxI93EuUi6nmG-75" value="3.3） 上架差异处理" style="text;html=1;align=left;verticalAlign=middle;resizable=0;points=[];autosize=1;strokeColor=none;fillColor=none;fontStyle=0" vertex="1" parent="1">
          <mxGeometry x="-1593" y="565" width="130" height="30" as="geometry" />
        </mxCell>
      </root>
    </mxGraphModel>
  </diagram>
</mxfile>
